<?xml version="1.0" standalone="no"?><!DOCTYPE svg PUBLIC "-//W3C//DTD SVG 1.1//EN" "http://www.w3.org/Graphics/SVG/1.1/DTD/svg11.dtd"><svg t="1770008436063" class="icon" viewBox="0 0 1024 1024" version="1.1" xmlns="http://www.w3.org/2000/svg" p-id="1704" xmlns:xlink="http://www.w3.org/1999/xlink" width="200" height="200"><path d="M513 396h117v117H513z" fill="#597EF7" opacity=".559" p-id="1705"></path><path d="M396 278h117v117H396zM748 278h117v117H748zM160 513h117v117H160z" fill="#597EF7" p-id="1706"></path><path d="M513 513h117v117H513z" fill="#597EF7" opacity=".783" p-id="1707"></path><path d="M396 513h117v117H396z" fill="#597EF7" opacity=".461" p-id="1708"></path><path d="M748 513h117v117H748z" fill="#597EF7" p-id="1709"></path><path d="M278 747h117v117H278zM513 630h117v117H513z" fill="#597EF7" opacity=".415" p-id="1710"></path><path d="M630 396h117v117H630z" fill="#597EF7" opacity=".341" p-id="1711"></path><path d="M278 161h117v117H278zM630 161h117v117H630z" fill="#597EF7" p-id="1712"></path></svg>